<?xml version="1.0" encoding="UTF-8" standalone="no"?>
<!-- Created with Inkscape (http://www.inkscape.org/) -->

<svg
   width="800mm"
   height="140mm"
   viewBox="0 0 800 140"
   version="1.1"
   id="svg1"
   xml:space="preserve"
   sodipodi:docname="NerdFlare-logo.svg"
   inkscape:version="1.4 (e7c3feb1, 2024-10-09)"
   xmlns:inkscape="http://www.inkscape.org/namespaces/inkscape"
   xmlns:sodipodi="http://sodipodi.sourceforge.net/DTD/sodipodi-0.dtd"
   xmlns="http://www.w3.org/2000/svg"
   xmlns:svg="http://www.w3.org/2000/svg"><sodipodi:namedview
     id="namedview1"
     pagecolor="#ffffff"
     bordercolor="#000000"
     borderopacity="0.25"
     inkscape:showpageshadow="2"
     inkscape:pageopacity="0.0"
     inkscape:pagecheckerboard="0"
     inkscape:deskcolor="#d1d1d1"
     inkscape:document-units="mm"
     inkscape:zoom="0.3545533"
     inkscape:cx="1466.6342"
     inkscape:cy="218.58491"
     inkscape:window-width="1848"
     inkscape:window-height="1092"
     inkscape:window-x="0"
     inkscape:window-y="44"
     inkscape:window-maximized="0"
     inkscape:current-layer="svg1" /><defs
     id="defs1" /><g
     inkscape:groupmode="layer"
     id="layer3"
     inkscape:label="Background"><rect
       style="fill:#8ace00;fill-opacity:1;stroke:#ffffff;stroke-width:0.651871"
       id="rect1"
       width="800"
       height="140"
       x="0.10784768"
       y="0.062298793"
       inkscape:label="Brat" /></g><g
     inkscape:groupmode="layer"
     id="layer4"
     inkscape:label="Text"><text
       xml:space="preserve"
       style="font-size:14.1111px;font-family:'.New York';-inkscape-font-specification:'.New York, Normal';text-align:start;writing-mode:lr-tb;direction:ltr;text-anchor:start;display:none;fill:#8ace00;fill-opacity:1;stroke:#ffffff;stroke-width:0.3"
       x="450.65918"
       y="103.66388"
       id="text1-1"
       inkscape:label="FLARE (font)"><tspan
         sodipodi:role="line"
         id="tspan1-8"
         style="font-style:normal;font-variant:normal;font-weight:normal;font-stretch:normal;font-size:105.833px;font-family:Impact;-inkscape-font-specification:'Impact, Normal';font-variant-ligatures:normal;font-variant-caps:normal;font-variant-numeric:normal;font-variant-east-asian:normal;fill:#000000;fill-opacity:1;stroke:none;stroke-width:0.3"
         x="450.65918"
         y="103.66388">Flare</tspan></text><text
       xml:space="preserve"
       style="font-size:14.1111px;font-family:'.New York';-inkscape-font-specification:'.New York, Normal';text-align:start;writing-mode:lr-tb;direction:ltr;text-anchor:start;display:none;fill:#8ace00;fill-opacity:1;stroke:#ffffff;stroke-width:0.3"
       x="98.771706"
       y="103.66388"
       id="text1"
       inkscape:label="NERD (font)"><tspan
         sodipodi:role="line"
         id="tspan1"
         style="font-style:normal;font-variant:normal;font-weight:normal;font-stretch:normal;font-size:105.833px;font-family:Impact;-inkscape-font-specification:'Impact, Normal';font-variant-ligatures:normal;font-variant-caps:normal;font-variant-numeric:normal;font-variant-east-asian:normal;fill:#000000;fill-opacity:1;stroke:none;stroke-width:0.3"
         x="98.771706"
         y="103.66388">Nerd</tspan></text><path
       style="font-size:105.833px;font-family:Impact;-inkscape-font-specification:'Impact, Normal';stroke-width:0.3"
       d="M 151.68821,19.999999 V 103.66388 H 132.61966 L 121.30256,65.630145 V 103.66388 H 103.11251 V 19.999999 h 18.19005 l 12.1956,37.672 v -37.672 z m 55.39696,50.591068 h -27.02669 v 14.831089 q 0,4.650864 0.67179,5.994447 0.67179,1.343584 2.58381,1.343584 2.37711,0 3.15226,-1.756994 0.82682,-1.808669 0.82682,-6.92462 v -9.043347 h 19.79201 V 80.0995 q 0,6.356182 -0.82682,9.766815 -0.77515,3.410634 -3.7207,7.286354 -2.94554,3.875721 -7.49305,5.839421 -4.49584,1.91202 -11.31711,1.91202 -6.61456,0 -11.67883,-1.91202 -5.06428,-1.91202 -7.90647,-5.219305 -2.79052,-3.358958 -3.87572,-7.338031 -1.08521,-4.030749 -1.08521,-11.678837 V 58.757201 q 0,-8.991671 2.42879,-14.159298 2.42878,-5.219303 7.95814,-7.958145 5.52937,-2.790519 12.71237,-2.790519 8.78496,0 14.46935,3.358958 5.73607,3.307281 8.00982,8.836642 2.32544,5.477684 2.32544,15.451204 z M 186.15628,59.428993 v -5.012599 q 0,-5.322655 -0.56844,-6.872943 -0.56844,-1.550289 -2.32543,-1.550289 -2.17041,0 -2.68717,1.343584 -0.51676,1.291906 -0.51676,7.079648 v 5.012599 z m 48.62736,-24.339523 -0.82682,8.991671 q 4.54751,-9.663463 13.17745,-10.231902 v 24.132818 q -5.73607,0 -8.42323,1.550288 -2.68717,1.550288 -3.30728,4.340807 -0.62012,2.738842 -0.62012,12.712362 V 103.66388 H 213.90643 V 35.08947 Z m 64.49199,-15.089471 v 83.663881 h -20.87721 v -4.960922 q -2.99723,3.100572 -6.30451,4.650862 -3.30728,1.55029 -6.92462,1.55029 -4.85757,0 -8.42323,-2.53214 -3.56566,-2.583811 -4.59919,-5.942768 -0.98185,-3.358958 -0.98185,-10.95537 V 53.382869 q 0,-7.906469 0.98185,-11.21375 1.03353,-3.307282 4.65087,-5.787743 3.61733,-2.532137 8.62993,-2.532137 3.87572,0 7.07965,1.395259 3.25561,1.39526 5.8911,4.185778 V 19.999999 Z m -20.87721,32.349345 q 0,-3.772368 -0.6718,-5.064275 -0.62011,-1.291907 -2.53213,-1.291907 -1.86035,0 -2.53214,1.188555 -0.62012,1.136878 -0.62012,5.167627 v 33.589575 q 0,4.185778 0.62012,5.529361 0.62012,1.291907 2.37711,1.291907 2.01537,0 2.68716,-1.446936 0.6718,-1.498612 0.6718,-7.234678 z"
       id="text3"
       inkscape:label="NERD (path)"
       aria-label="Nerd" /><path
       style="font-size:105.833px;font-family:Impact;-inkscape-font-specification:'Impact, Normal';stroke-width:0.3"
       d="m 454.99999,19.999999 h 36.84518 V 36.74311 H 476.7557 v 15.864615 h 13.43583 V 68.524016 H 476.7557 v 35.139864 h -21.75571 z m 62.99337,0 V 103.66388 H 496.49603 V 19.999999 Z m 26.1482,41.651073 h -19.58531 v -4.599188 q 0,-7.958145 1.80867,-12.247276 1.86035,-4.340806 7.38971,-7.648088 5.52936,-3.307281 14.366,-3.307281 10.59363,0 15.96797,3.772368 5.37433,3.720691 6.45953,9.198376 1.0852,5.426008 1.0852,22.427501 v 34.416396 h -20.30877 v -6.0978 q -1.91202,3.66901 -4.96092,5.52936 -2.99723,1.80867 -7.18301,1.80867 -5.47768,0 -10.07687,-3.0489 -4.54751,-3.100576 -4.54751,-13.487506 V 82.73499 q 0,-7.699764 2.42879,-10.490283 2.42878,-2.790518 12.04057,-6.51121 10.28357,-4.030749 11.00704,-5.426008 0.72347,-1.395259 0.72347,-5.684389 0,-5.374333 -0.82682,-6.976297 -0.77515,-1.653641 -2.63549,-1.653641 -2.11873,0 -2.63549,1.39526 -0.51676,1.343583 -0.51676,7.079649 z m 6.61456,9.405081 q -5.0126,3.669015 -5.83942,6.149476 -0.77514,2.480461 -0.77514,7.131326 0,5.322655 0.67179,6.872943 0.72347,1.550289 2.79052,1.550289 1.96369,0 2.53213,-1.188555 0.62012,-1.24023 0.62012,-6.407857 z m 48.93743,-35.966683 -0.82682,8.991671 q 4.54751,-9.663463 13.17744,-10.231902 v 24.132818 q -5.73606,0 -8.42323,1.550288 -2.68716,1.550288 -3.30728,4.340807 -0.62011,2.738842 -0.62011,12.712362 V 103.66388 H 578.81633 V 35.08947 Z m 64.28526,35.501597 h -27.02669 v 14.831089 q 0,4.650864 0.6718,5.994447 0.67179,1.343584 2.58381,1.343584 2.37711,0 3.15225,-1.756994 0.82682,-1.808669 0.82682,-6.92462 v -9.043347 h 19.79201 V 80.0995 q 0,6.356182 -0.82682,9.766815 -0.77514,3.410634 -3.72069,7.286354 -2.94555,3.875721 -7.49306,5.839421 -4.49583,1.91202 -11.3171,1.91202 -6.61456,0 -11.67884,-1.91202 -5.06427,-1.91202 -7.90647,-5.219305 -2.79052,-3.358958 -3.87572,-7.338031 -1.0852,-4.030749 -1.0852,-11.678837 V 58.757201 q 0,-8.991671 2.42879,-14.159298 2.42878,-5.219303 7.95814,-7.958145 5.52936,-2.790519 12.71236,-2.790519 8.78497,0 14.46936,3.358958 5.73606,3.307281 8.00982,8.836642 2.32543,5.477684 2.32543,15.451204 z M 643.04992,59.428993 v -5.012599 q 0,-5.322655 -0.56844,-6.872943 -0.56843,-1.550289 -2.32543,-1.550289 -2.1704,0 -2.68716,1.343584 -0.51677,1.291906 -0.51677,7.079648 v 5.012599 z"
       id="text4"
       inkscape:label="FLARE (path)"
       aria-label="Flare" /></g><g
     inkscape:groupmode="layer"
     id="layer5"
     inkscape:label="Sparky"><path
       style="display:inline;fill:#000000;stroke:#000000;stroke-width:0.264583"
       d="m 22.831064,112.57347 c 7.477829,-0.0254 22.433487,-0.0761 29.936686,-0.0846 7.503199,-0.008 7.553979,0.0254 7.583576,0.0888 0.0296,0.0634 0.03806,0.15651 -1.349261,1.40848 -1.387319,1.25197 -4.1703,3.66276 -5.642182,4.96969 -1.471883,1.30693 -1.6326,1.50994 -1.746799,1.67912 -0.114199,0.16919 -0.18187,0.30453 -0.173419,0.41026 0.0085,0.10574 0.09306,0.18188 4.263468,0.82055 4.170411,0.63867 12.426309,1.83984 16.588169,2.42352 4.16186,0.58368 4.22956,0.54983 4.276078,0.45679 0.04652,-0.093 0.07189,-0.24531 -2.174035,-2.94381 -2.24593,-2.6985 -6.762992,-7.94303 -9.025796,-10.62879 -2.262804,-2.68576 -2.27126,-2.81264 -2.233191,-2.91838 0.03807,-0.10574 0.122656,-0.19033 1.852572,-0.0592 1.729916,0.13112 5.105023,0.47793 6.834909,0.63866 1.729886,0.16072 1.814488,0.13535 1.865229,0.0846 0.05074,-0.0507 0.06766,-0.12689 0.0084,-0.27492 -0.05922,-0.14804 -0.194559,-0.36797 -2.440488,-3.17644 -2.24593,-2.80847 -6.602271,-8.205259 -8.776256,-10.962923 -2.173986,-2.757663 -2.16553,-2.876085 -2.131691,-2.969139 0.03384,-0.09305 0.09305,-0.160719 0.181867,-0.156489 0.08882,0.0042 0.207248,0.08036 5.739596,3.261038 5.532349,3.180678 16.478183,9.465653 21.997729,12.625123 5.519545,3.15946 5.612616,3.19331 5.714121,3.21867 0.101506,0.0254 0.211472,0.0423 0.296069,0.0169 0.0846,-0.0254 0.143801,-0.0931 0.160718,-0.28762 0.01692,-0.19456 -0.0085,-0.516 -0.439879,-3.1003 -0.431421,-2.58429 -1.268853,-7.431252 -1.670659,-9.897076 -0.401806,-2.465824 -0.367971,-2.550412 -0.296068,-2.605396 0.0719,-0.05499 0.181872,-0.08036 0.300301,-0.0719 0.118428,0.0085 0.245311,0.05075 1.391537,0.65559 1.146227,0.604836 3.311709,1.772166 4.783597,2.550406 1.471887,0.778239 2.250108,1.167352 2.698438,1.353451 0.44833,0.1861 0.56676,0.169183 0.64289,0.05922 0.0761,-0.109966 0.10996,-0.312988 -0.10998,-3.19759 -0.21994,-2.884602 -0.69363,-8.450565 -0.90088,-11.258978 -0.20725,-2.808414 -0.14804,-2.85917 -0.0888,-2.863404 0.0592,-0.0042 0.11843,0.03806 2.67736,5.422379 2.55892,5.384315 7.61735,16.110228 10.14662,21.519828 2.52926,5.40961 2.52926,5.50261 2.49965,5.61258 -0.0296,0.10996 -0.0888,0.23686 -0.20302,0.27915 -0.1142,0.0423 -0.28337,0 -1.84833,-0.76979 -1.56496,-0.76979 -4.52558,-2.26702 -6.05668,-3.00297 -1.5311,-0.73594 -1.63262,-0.71057 -1.71297,-0.62599 -0.0804,0.0846 -0.13957,0.22839 0.68944,3.24835 0.82901,3.01995 2.54617,8.91581 3.44706,11.91456 0.9009,2.99874 0.98548,3.10025 1.08699,3.151 0.10151,0.0508 0.21994,0.0508 1.43807,-1.96677 1.21813,-2.01754 3.53587,-6.05244 4.74128,-8.0953 1.20541,-2.04287 1.29848,-2.09363 1.39577,-2.08517 0.0973,0.008 0.19878,0.0761 0.98126,1.76375 0.78248,1.68762 2.24587,4.99506 3.04526,6.69111 0.79938,1.69604 0.93472,1.78063 1.06161,1.77217 0.12689,-0.008 0.24531,-0.10997 2.22054,-3.7559 1.97524,-3.64594 5.80713,-10.83602 7.76965,-14.46075 1.96252,-3.62472 2.05554,-3.68391 2.15705,-3.70506 0.1015,-0.0211 0.21147,-0.004 0.27493,0.11 0.0634,0.11421 0.0804,0.32567 -0.68094,6.48824 -0.76132,6.16257 -2.30085,18.27573 -3.04947,24.39588 -0.74863,6.12015 -0.70634,6.24703 -0.6006,6.37392 0.10574,0.12688 0.27492,0.25377 2.87614,0.71057 2.60122,0.45679 7.63427,1.24347 10.21006,1.62835 2.5758,0.38489 2.69421,0.36796 2.78304,0.28759 0.0888,-0.0804 0.14803,-0.22417 0.15649,-0.43988 0.008,-0.21571 -0.0338,-0.50332 -0.38489,-2.30091 -0.35106,-1.79758 -1.01085,-5.10502 -1.27309,-6.81375 -0.26223,-1.70874 -0.12688,-1.81871 0.0634,-1.84408 0.19033,-0.0254 0.43564,0.0338 9.52087,1.64532 9.08524,1.61149 27.00967,4.77512 35.98898,6.39502 8.97931,1.61989 9.01317,1.69607 8.99202,1.76796 -0.0212,0.0719 -0.0973,0.13958 -6.04414,0.86707 -5.94685,0.7275 -17.76395,2.11476 -23.74876,2.92261 -5.98481,0.80785 -6.13708,1.03626 -5.55339,3.01573 0.58368,1.97947 1.90327,5.70985 2.54193,7.64698 0.63866,1.93713 0.59637,2.08093 0.45256,2.17398 -0.14381,0.0931 -0.38912,0.13535 -5.20243,-0.34683 -4.81331,-0.48218 -14.19425,-1.48879 -18.96941,-1.96673 -4.77515,-0.47793 -4.94432,-0.42718 -5.05852,-0.33413 -0.11419,0.093 -0.17341,0.22839 0.49064,1.9583 0.66405,1.72992 2.05132,5.05428 2.73228,6.78839 0.68096,1.73412 0.65559,1.87793 0.54564,1.96674 -0.10996,0.0888 -0.30452,0.12265 -4.22962,-0.46104 -3.92509,-0.58368 -11.5804,-1.78485 -15.46312,-2.35584 -3.88271,-0.57099 -3.99269,-0.51177 -4.03499,-0.40603 -0.0423,0.10575 -0.0169,0.25801 3.80241,2.87191 3.81934,2.6139 11.43236,7.68925 15.23895,10.27773 3.80659,2.58848 3.80659,2.68999 3.47245,3.00721 -0.33414,0.31722 -1.0024,0.85013 -1.98789,1.47188 -0.9855,0.62175 -2.28817,1.3323 -2.98605,1.75949 -0.69789,0.4272 -0.79092,0.57098 -0.76131,0.72325 0.0296,0.15226 0.18187,0.31298 3.17221,1.73836 2.99034,1.42538 8.81854,4.11532 11.74115,5.49836 2.92262,1.38304 2.93955,1.4592 2.79153,1.51419 -0.14803,0.055 -0.46101,0.0888 -5.76496,-0.49487 -5.30395,-0.58368 -15.59845,-1.78485 -21.38871,-2.44466 -5.79025,-0.65981 -7.076,-0.77823 -8.66632,-0.94319 -1.59033,-0.16495 -3.48513,-0.37642 -4.77092,-0.55829 -1.28579,-0.18188 -1.9625,-0.33414 -2.3051,-0.46947 -0.34259,-0.13533 -0.35106,-0.25378 -0.26225,-0.37221 0.0888,-0.11843 0.27492,-0.23686 1.79758,-0.97281 1.52266,-0.73595 4.38178,-2.08938 5.86212,-2.82955 1.48034,-0.74017 1.58185,-0.86706 1.54378,-1.04893 -0.0381,-0.18187 -0.21571,-0.41872 -1.97946,-1.37038 -1.76375,-0.95166 -5.11348,-2.61807 -6.93219,-3.47667 -1.81871,-0.8586 -2.10631,-0.90935 -4.50873,-0.97703 -2.40243,-0.0677 -6.919484,-0.15226 -9.24996,-0.16495 -2.330477,-0.0127 -2.474284,0.0465 -2.567334,0.13535 -0.09305,0.0888 -0.135346,0.20725 -0.07613,0.35951 0.05922,0.15227 0.219934,0.33836 2.144414,2.22054 1.924479,1.88219 5.61256,5.46031 7.43972,7.2917 1.82716,1.83139 1.79332,1.91599 1.68759,1.99634 -0.10573,0.0804 -0.28338,0.1565 -3.30756,0.0169 -3.024179,-0.13958 -8.894665,-0.49486 -11.910336,-0.64712 -3.01567,-0.15226 -3.176376,-0.10151 -3.277877,-0.0296 -0.1015,0.0719 -0.143814,0.16497 -0.08883,0.32569 0.05499,0.16073 0.207247,0.38912 2.588525,2.71964 2.381278,2.33052 6.991385,6.76299 9.279561,9.02581 2.288177,2.26282 2.254347,2.35585 2.106307,2.4489 -0.14805,0.0931 -0.41025,0.18609 -2.533524,0.49062 -2.123271,0.30453 -6.107419,0.82053 -8.175664,1.10813 -2.068244,0.28761 -2.220511,0.34683 -2.351628,0.45257 -0.131117,0.10574 -0.241083,0.258 -0.207245,0.44833 0.03384,0.19033 0.211475,0.41872 2.774628,3.06224 2.563152,2.64351 7.511617,7.70194 9.968983,10.28195 2.45737,2.58002 2.42352,2.68155 2.2628,2.71115 -0.16073,0.0296 -0.44833,-0.0127 -6.593975,-3.4683 -6.145642,-3.4556 -18.148842,-10.32424 -24.175948,-13.80517 -6.027107,-3.48093 -6.077839,-3.57394 -6.048232,-3.67122 0.02961,-0.0973 0.139574,-0.19879 0.321449,-0.26223 0.181874,-0.0634 0.435645,-0.0888 2.639274,-0.42717 2.203629,-0.33836 6.356956,-0.9897 8.492877,-1.35767 2.135922,-0.36797 2.254343,-0.45256 2.305098,-0.56253 0.05075,-0.10997 0.03384,-0.24531 -0.114196,-0.46102 -0.148036,-0.21571 -0.42718,-0.51177 -2.78308,-2.37703 -2.355901,-1.86527 -6.788372,-5.29959 -9.097703,-7.05908 -2.309331,-1.75949 -2.495426,-1.84408 -2.702679,-1.85254 -0.207253,-0.008 -0.435637,0.0592 -0.621737,0.19456 -0.1861,0.13535 -0.329903,0.33837 -1.14622,1.67916 -0.816316,1.34079 -2.305085,3.81925 -3.108701,5.1008 -0.803616,1.28155 -0.922037,1.36614 -1.044695,1.39998 -0.122658,0.0339 -0.249541,0.017 -0.355281,-0.11416 -0.10574,-0.13111 -0.190329,-0.37642 -1.036253,-3.29063 -0.845924,-2.91421 -2.453116,-8.49709 -3.286336,-11.36472 -0.83322,-2.86763 -0.892432,-3.01989 -1.023555,-3.12986 -0.131124,-0.10997 -0.334129,-0.17764 -0.486393,-0.13111 -0.152264,0.0465 -0.253772,0.20724 -1.996378,2.74501 -1.742606,2.53778 -5.126172,7.45241 -6.915269,9.9859 -1.789098,2.5335 -1.983653,2.68576 -2.165512,2.75766 -0.18186,0.0719 -0.351059,0.0634 -0.507555,-0.0254 -0.156496,-0.0888 -0.300298,-0.25801 -0.418725,-0.58791 -0.118426,-0.32991 -0.211475,-0.82053 -0.651354,-2.16132 -0.439879,-1.34078 -1.226558,-3.53164 -1.700264,-4.66516 -0.473705,-1.13352 -0.634437,-1.20965 -0.824769,-1.12929 -0.190332,0.0804 -0.410264,0.31722 -2.601208,3.01149 -2.190944,2.69427 -6.352725,7.84574 -8.505564,10.48075 -2.15284,2.63501 -2.296639,2.75343 -2.461587,2.83802 -0.164948,0.0846 -0.351059,0.13535 -0.486408,0.14804 -0.135349,0.0127 -0.219923,-0.0127 0.537176,-3.18066 0.757099,-3.16798 2.355834,-9.47833 4.128031,-16.46138 1.772197,-6.98305 3.717748,-14.63837 4.749764,-18.49994 1.032015,-3.86158 1.150428,-3.92924 1.285774,-3.87848 0.135346,0.0507 0.287608,0.21993 1.416916,2.21208 1.129308,1.99215 3.235577,5.80712 4.35218,7.75694 1.116603,1.94982 1.243482,2.03441 1.378829,2.01326 0.135347,-0.0212 0.279147,-0.14803 2.157101,-2.76617 1.877954,-2.61814 5.48991,-7.72732 7.350909,-10.36655 1.860999,-2.63924 1.970965,-2.80842 2.00903,-2.96068 0.03807,-0.15227 0.0042,-0.28761 -0.109968,-0.36375 -0.114199,-0.0761 -0.308751,-0.0931 -2.495468,0.6048 -2.186717,0.69788 -6.365421,2.11052 -8.535177,2.81686 -2.169757,0.70633 -2.330476,0.70633 -2.482734,0.66827 -0.152258,-0.0381 -0.296071,-0.11421 0.25378,-1.72146 0.549852,-1.60726 1.793311,-4.74551 2.381217,-6.44156 0.587906,-1.69605 0.520234,-1.94982 0.359509,-2.0767 -0.160724,-0.12689 -0.414492,-0.12689 -4.694871,1.24774 -4.28038,1.37463 -12.587031,4.12377 -16.816561,5.49414 -4.22953,1.37036 -4.381814,1.3619 -4.508708,1.32382 -0.126895,-0.0381 -0.228392,-0.10574 -0.232619,-0.21571 -0.0042,-0.10997 0.08882,-0.26223 4.720261,-3.98007 4.63144,-3.71784 13.8009,-11.00096 18.440708,-14.71027 4.639808,-3.70931 4.749772,-3.84465 4.783609,-4.00538 0.03384,-0.16072 -0.0085,-0.34682 -2.410885,-0.95165 -2.402428,-0.60484 -7.164797,-1.62836 -9.601025,-2.18667 -2.436228,-0.55831 -2.54617,-0.65134 -2.520791,-0.78669 0.02538,-0.13535 0.186099,-0.31299 1.598792,-1.62417 1.412692,-1.31118 4.077252,-3.75581 5.447623,-5.05851 1.370372,-1.3027 1.446503,-1.46342 1.395747,-1.6326 -0.05076,-0.16918 -0.228395,-0.34682 -4.102731,-1.5861 -3.874336,-1.23928 -11.445062,-3.5401 -15.264338,-4.71168 -3.819275,-1.17159 -3.886952,-1.21389 -3.88695,-1.29002 2e-6,-0.0761 0.06767,-0.18609 0.10151,-0.24108 0.03384,-0.055 0.03382,-0.055 7.511651,-0.0804 z"
       id="path1"
       inkscape:label="Outline"
       transform="translate(284.91447,-81.705368)" /><path
       style="display:none;fill:#ffffff;fill-opacity:1;stroke:#000000;stroke-width:0.264583"
       d="m 89.781841,144.89791 c 0.140152,-0.14816 0.420462,-0.44449 0.744819,-0.71278 0.324356,-0.2683 0.692747,-0.50855 1.073166,-0.72079 0.380419,-0.21223 0.77284,-0.39643 1.06917,-0.51656 0.29633,-0.12013 0.496533,-0.17619 0.736801,-0.16818 0.240268,0.008 0.520565,0.0801 0.840918,0.14816 0.320354,0.0681 0.680736,0.13214 1.053147,0.13214 0.372412,0 0.75682,-0.0641 1.121221,-0.17219 0.3644,-0.10812 0.708768,-0.26028 1.057152,-0.45649 0.348383,-0.19622 0.70076,-0.43648 0.985071,-0.72479 0.28431,-0.28832 0.500541,-0.62468 0.692753,-0.99709 0.192212,-0.37241 0.360394,-0.78085 0.472516,-1.18529 0.112122,-0.40445 0.168182,-0.80488 0.184198,-1.17328 0.01602,-0.36841 -0.008,-0.70477 -0.08409,-1.02512 -0.07609,-0.32035 -0.204219,-0.62467 -0.284307,-0.85293 -0.08009,-0.22825 -0.11212,-0.38041 0.340379,-1.20933 0.452495,-0.82891 1.389505,-2.33453 1.930095,-3.1354 0.54059,-0.80087 0.68474,-0.89698 0.79686,-0.92501 0.11212,-0.028 0.19222,0.012 0.27631,0.27231 0.0841,0.26028 0.17218,0.7408 0.35238,1.91009 0.1802,1.16929 0.45249,3.02728 0.58062,4.02837 0.12814,1.0011 0.1121,1.14524 0.0761,1.28941 -0.036,0.14416 -0.0921,0.28831 -0.9891,1.2694 -0.897,0.98108 -2.63486,2.79903 -3.547858,3.74406 -0.913002,0.94504 -1.001086,1.01711 -1.181284,1.06517 -0.180198,0.048 -0.452486,0.0721 -1.79798,0.1682 -1.345494,0.0961 -3.764079,0.26429 -5.029459,0.34838 -1.265381,0.0841 -1.377501,0.0841 -1.453585,0.028 -0.07608,-0.0561 -0.116127,-0.16819 -0.136149,-0.22425 -0.02002,-0.0561 -0.01997,-0.0561 0.12018,-0.20424 z"
       id="path2"
       inkscape:label="Right eye (angry)"
       transform="translate(284.91447,-81.705368)" /><path
       style="display:none;fill:#ffffff;fill-opacity:1;stroke:#000000;stroke-width:0.264583"
       d="m 78.233257,145.33438 c -0.452494,-0.28831 -1.35748,-0.86494 -1.906075,-1.17328 -0.548594,-0.30833 -0.740813,-0.34838 -0.953044,-0.3604 -0.212232,-0.012 -0.44448,0.004 -0.680744,0.036 -0.236265,0.032 -0.476512,0.0801 -0.77684,0.12813 -0.300329,0.048 -0.660721,0.0961 -1.065168,0.0881 -0.404447,-0.008 -0.852923,-0.0721 -1.261372,-0.1842 -0.408449,-0.11213 -0.776843,-0.2723 -1.125225,-0.47252 -0.348382,-0.20022 -0.676734,-0.44048 -0.957042,-0.7288 -0.280307,-0.28831 -0.512556,-0.62467 -0.684745,-0.95704 -0.172189,-0.33236 -0.284312,-0.66072 -0.360394,-1.00109 -0.07608,-0.34037 -0.116126,-0.69275 -0.136148,-1.00109 -0.02002,-0.30834 -0.02002,-0.57262 0.01201,-0.8249 0.03204,-0.25228 0.0961,-0.49253 0.07208,-0.72078 -0.02403,-0.22826 -0.136147,-0.44449 -0.776857,-1.14126 -0.640711,-0.69677 -1.809961,-1.87403 -2.446644,-2.48669 -0.636684,-0.61266 -0.740815,-0.66073 -0.832918,-0.60867 -0.0921,0.0521 -0.172186,0.20422 -0.152163,1.32146 0.02002,1.11724 0.14015,3.19947 0.204219,4.32069 0.06407,1.12122 0.07207,1.2814 0.140151,1.44958 0.06807,0.16819 0.196207,0.34437 1.477628,1.24137 1.281422,0.89699 3.716026,2.51472 5.033468,3.35965 1.317442,0.84492 1.517649,0.91699 1.737891,0.95303 0.220243,0.036 0.460501,0.036 1.38953,-0.04 0.929028,-0.0761 2.546759,-0.22825 3.427725,-0.34038 0.880967,-0.11212 1.025114,-0.18419 1.081174,-0.27229 0.05606,-0.0881 0.02403,-0.19221 0.008,-0.24427 -0.01602,-0.0521 -0.01601,-0.052 -0.468508,-0.34032 z"
       id="path3"
       inkscape:label="Left eye (angry)"
       transform="translate(284.91447,-81.705368)" /><path
       style="display:none;fill:#ffffff;fill-opacity:1;stroke:#000000;stroke-width:0.264583"
       d="m 65.443751,164.85455 c 0.106512,-0.32968 0.319537,-0.98904 0.603572,-1.72448 0.284035,-0.73545 0.639066,-1.54695 1.115836,-2.43962 0.47677,-0.89268 1.075254,-1.86649 1.749832,-2.73888 0.674579,-0.87238 1.425221,-1.64331 1.861411,-2.06428 0.43619,-0.42098 0.557916,-0.49198 0.679645,-0.52749 0.121729,-0.0355 0.243455,-0.0355 0.370255,0.0761 0.126801,0.11158 0.258669,0.33474 0.36011,0.53255 0.101442,0.19781 0.172449,0.37026 0.258673,0.46663 0.08622,0.0964 0.187661,0.11667 0.385472,0.071 0.197811,-0.0456 0.49198,-0.15723 1.257861,-0.63907 0.76588,-0.48185 2.00342,-1.33393 2.987391,-1.91721 0.98397,-0.58328 1.714321,-0.89774 2.231672,-1.09555 0.51735,-0.19781 0.82165,-0.27896 1.075252,-0.31953 0.253601,-0.0406 0.456475,-0.0406 0.588349,0.0456 0.131874,0.0862 0.192734,0.25867 0.233309,0.46155 0.04058,0.20288 0.06086,0.43619 0.02536,0.634 -0.03551,0.19781 -0.1268,0.36011 -0.20288,0.5072 -0.07608,0.14708 -0.136943,0.27895 -0.147085,0.42097 -0.01014,0.14202 0.03043,0.29417 0.111582,0.40575 0.08115,0.11159 0.202879,0.1826 0.52242,0.15217 0.31954,-0.0304 0.836872,-0.16231 1.37958,-0.28404 0.542708,-0.12173 1.110758,-0.23331 1.907068,-0.35503 0.796311,-0.12173 1.820831,-0.2536 2.779443,-0.27389 0.958612,-0.0203 1.851263,0.071 2.586706,0.1623 0.735442,0.0913 1.313636,0.18259 1.709252,0.29418 0.395616,0.11158 0.608636,0.24345 0.730364,0.43112 0.121728,0.18767 0.152156,0.43111 0.14201,0.62385 -0.01014,0.19274 -0.06086,0.33475 -0.05579,0.48184 0.0051,0.14709 0.06593,0.29924 0.329683,0.42097 0.263748,0.12173 0.730358,0.21302 1.582464,0.44634 0.852105,0.23331 2.089643,0.60863 3.06347,0.94846 0.973828,0.33983 1.683892,0.64414 2.180946,0.90281 0.497046,0.25868 0.781076,0.47169 0.928156,0.6695 0.14708,0.19781 0.15722,0.3804 0.14707,0.56806 -0.0102,0.18766 -0.0406,0.38041 -0.0913,0.563 -0.0507,0.18259 -0.12172,0.35503 -0.11666,0.51733 0.005,0.16229 0.0862,0.31447 0.4362,0.5275 0.34998,0.21302 0.96875,0.4869 1.57739,0.81151 0.60864,0.32461 1.20712,0.69993 1.74476,1.07526 0.53763,0.37533 1.01439,0.75065 1.31364,1.00932 0.29925,0.25867 0.42098,0.40069 0.49199,0.5427 0.071,0.14202 0.0913,0.28403 0.0812,0.3956 -0.0101,0.11157 -0.0507,0.19277 -0.19782,0.18769 -0.14708,-0.005 -0.40067,-0.0964 -0.98396,-0.28911 -0.58329,-0.19274 -1.49623,-0.48691 -2.44977,-0.71516 -0.95354,-0.22824 -1.94763,-0.39054 -2.799723,-0.48691 -0.852097,-0.0964 -1.562162,-0.1268 -2.038928,-0.1268 -0.476766,0 -0.720225,0.0304 -0.948463,0.0456 -0.228238,0.0152 -0.44126,0.0152 -0.603563,-0.071 -0.162304,-0.0862 -0.273884,-0.25867 -0.2891,-0.43112 -0.01522,-0.17245 0.06593,-0.34489 0.142014,-0.54778 0.07608,-0.20288 0.147085,-0.43618 0.136941,-0.63907 -0.01014,-0.20288 -0.101436,-0.37532 -0.390544,-0.49705 -0.289108,-0.12173 -0.776008,-0.19273 -1.516527,-0.21302 -0.74052,-0.0203 -1.734609,0.0101 -2.718583,0.15217 -0.983973,0.14202 -1.957774,0.39561 -2.713505,0.62892 -0.755731,0.23332 -1.293349,0.44634 -1.653462,0.61879 -0.360112,0.17245 -0.542695,0.30432 -0.750651,0.37025 -0.207955,0.0659 -0.441262,0.0659 -0.608639,-0.0101 -0.167377,-0.0761 -0.268812,-0.22824 -0.319531,-0.3804 -0.05072,-0.15216 -0.05072,-0.30432 -0.04565,-0.46155 0.0051,-0.15724 0.01521,-0.31954 -0.0913,-0.45141 -0.106515,-0.13187 -0.329679,-0.23331 -0.583278,-0.25867 -0.2536,-0.0254 -0.537629,0.0254 -1.191923,0.17752 -0.654295,0.15216 -1.678815,0.40576 -2.561347,0.69487 -0.882532,0.2891 -1.623026,0.6137 -2.383831,0.97382 -0.760804,0.36011 -1.541877,0.75572 -1.993285,1.00932 -0.451407,0.2536 -0.573131,0.36518 -0.730362,0.44633 -0.15723,0.0812 -0.349965,0.13187 -0.497054,-1e-5 -0.147088,-0.13187 -0.248527,-0.44633 -0.309389,-0.85717 -0.06086,-0.41083 -0.08115,-0.91801 -0.116653,-1.43536 -0.0355,-0.51735 -0.08622,-1.04482 -0.121726,-1.42015 -0.0355,-0.37533 -0.05579,-0.59849 -0.111581,-0.7608 -0.05579,-0.1623 -0.147087,-0.26374 -0.299247,-0.32968 -0.152159,-0.0659 -0.365187,-0.0964 -0.598499,-0.0203 -0.233312,0.0761 -0.486907,0.25867 -1.69913,1.02455 -1.212222,0.76588 -3.382986,2.115 -4.534327,2.86566 -1.151341,0.75065 -1.283211,0.90281 -1.460732,1.03468 -0.17752,0.13188 -0.400683,0.24346 -0.583273,0.28403 -0.182589,0.0406 -0.324616,0.0101 -0.385478,-0.0964 -0.06086,-0.10651 -0.04057,-0.2891 -0.03043,-0.3804 0.01014,-0.0913 0.01015,-0.0913 0.116663,-0.42101 z"
       id="path4"
       inkscape:label="Frown"
       transform="translate(284.91447,-81.705368)" /><path
       style="display:inline;fill:#ffffff;fill-opacity:1;stroke:#000000;stroke-width:0.264583"
       d="m 65.443751,164.85455 c 0.106512,-0.32968 0.319537,-0.98904 0.603572,-1.72448 0.284035,-0.73545 0.639066,-1.54695 1.115836,-2.43962 0.47677,-0.89268 1.075254,-1.86649 1.749832,-2.73888 0.674579,-0.87238 1.425221,-1.64331 1.861411,-2.06428 0.43619,-0.42098 0.557916,-0.49198 0.679645,-0.52749 0.121729,-0.0355 0.243455,-0.0355 0.370255,0.0761 0.126801,0.11158 0.258669,0.33474 0.36011,0.53255 0.101442,0.19781 0.172449,0.37026 0.258673,0.46663 0.08622,0.0964 0.187661,0.11667 0.385472,0.071 0.197811,-0.0456 0.49198,-0.15723 1.257861,-0.63907 0.76588,-0.48185 2.00342,-1.33393 2.987391,-1.91721 0.98397,-0.58328 1.714321,-0.89774 2.231672,-1.09555 0.51735,-0.19781 0.82165,-0.27896 1.075252,-0.31953 0.253601,-0.0406 0.456475,-0.0406 0.588349,0.0456 0.131874,0.0862 0.192734,0.25867 0.233309,0.46155 0.04058,0.20288 0.06086,0.43619 0.02536,0.634 -0.03551,0.19781 -0.1268,0.36011 -0.20288,0.5072 -0.07608,0.14708 -0.136943,0.27895 -0.147085,0.42097 -0.01014,0.14202 0.03043,0.29417 0.111582,0.40575 0.08115,0.11159 0.202879,0.1826 0.52242,0.15217 0.31954,-0.0304 0.836872,-0.16231 1.37958,-0.28404 0.542708,-0.12173 1.110758,-0.23331 1.907068,-0.35503 0.796311,-0.12173 1.820831,-0.2536 2.779443,-0.27389 0.958612,-0.0203 1.851263,0.071 2.586706,0.1623 0.735442,0.0913 1.313636,0.18259 1.709252,0.29418 0.395616,0.11158 0.608636,0.24345 0.730364,0.43112 0.121728,0.18767 0.152156,0.43111 0.14201,0.62385 -0.01014,0.19274 -0.06086,0.33475 -0.05579,0.48184 0.0051,0.14709 0.06593,0.29924 0.329683,0.42097 0.263748,0.12173 0.730358,0.21302 1.582464,0.44634 0.852105,0.23331 2.089643,0.60863 3.06347,0.94846 0.973828,0.33983 1.683892,0.64414 2.180946,0.90281 0.497046,0.25868 0.781076,0.47169 0.928156,0.6695 0.14708,0.19781 0.15722,0.3804 0.14707,0.56806 -0.0102,0.18766 -0.0406,0.38041 -0.0913,0.563 -0.0507,0.18259 -0.12172,0.35503 -0.11666,0.51733 0.005,0.16229 0.0862,0.31447 0.4362,0.5275 0.34998,0.21302 0.96875,0.4869 1.57739,0.81151 0.60864,0.32461 1.20712,0.69993 1.74476,1.07526 0.53763,0.37533 1.01439,0.75065 1.31364,1.00932 0.29925,0.25867 0.42098,0.40069 0.49199,0.5427 0.071,0.14202 0.0913,0.28403 0.0812,0.3956 -0.0101,0.11157 -0.0507,0.19277 -0.19782,0.18769 -0.14708,-0.005 -0.40067,-0.0964 -0.98396,-0.28911 -0.58329,-0.19274 -1.49623,-0.48691 -2.44977,-0.71516 -0.95354,-0.22824 -1.94763,-0.39054 -2.799723,-0.48691 -0.852097,-0.0964 -1.562162,-0.1268 -2.038928,-0.1268 -0.476766,0 -0.720225,0.0304 -0.948463,0.0456 -0.228238,0.0152 -0.44126,0.0152 -0.603563,-0.071 -0.162304,-0.0862 -0.273884,-0.25867 -0.2891,-0.43112 -0.01522,-0.17245 0.06593,-0.34489 0.142014,-0.54778 0.07608,-0.20288 0.147085,-0.43618 0.136941,-0.63907 -0.01014,-0.20288 -0.101436,-0.37532 -0.390544,-0.49705 -0.289108,-0.12173 -0.776008,-0.19273 -1.516527,-0.21302 -0.74052,-0.0203 -1.734609,0.0101 -2.718583,0.15217 -0.983973,0.14202 -1.957774,0.39561 -2.713505,0.62892 -0.755731,0.23332 -1.293349,0.44634 -1.653462,0.61879 -0.360112,0.17245 -0.542695,0.30432 -0.750651,0.37025 -0.207955,0.0659 -0.441262,0.0659 -0.608639,-0.0101 -0.167377,-0.0761 -0.268812,-0.22824 -0.319531,-0.3804 -0.05072,-0.15216 -0.05072,-0.30432 -0.04565,-0.46155 0.0051,-0.15724 0.01521,-0.31954 -0.0913,-0.45141 -0.106515,-0.13187 -0.329679,-0.23331 -0.583278,-0.25867 -0.2536,-0.0254 -0.537629,0.0254 -1.191923,0.17752 -0.654295,0.15216 -1.678815,0.40576 -2.561347,0.69487 -0.882532,0.2891 -1.623026,0.6137 -2.383831,0.97382 -0.760804,0.36011 -1.541877,0.75572 -1.993285,1.00932 -0.451407,0.2536 -0.573131,0.36518 -0.730362,0.44633 -0.15723,0.0812 -0.349965,0.13187 -0.497054,-1e-5 -0.147088,-0.13187 -0.248527,-0.44633 -0.309389,-0.85717 -0.06086,-0.41083 -0.08115,-0.91801 -0.116653,-1.43536 -0.0355,-0.51735 -0.08622,-1.04482 -0.121726,-1.42015 -0.0355,-0.37533 -0.05579,-0.59849 -0.111581,-0.7608 -0.05579,-0.1623 -0.147087,-0.26374 -0.299247,-0.32968 -0.152159,-0.0659 -0.365187,-0.0964 -0.598499,-0.0203 -0.233312,0.0761 -0.486907,0.25867 -1.69913,1.02455 -1.212222,0.76588 -3.382986,2.115 -4.534327,2.86566 -1.151341,0.75065 -1.283211,0.90281 -1.460732,1.03468 -0.17752,0.13188 -0.400683,0.24346 -0.583273,0.28403 -0.182589,0.0406 -0.324616,0.0101 -0.385478,-0.0964 -0.06086,-0.10651 -0.04057,-0.2891 -0.03043,-0.3804 0.01014,-0.0913 0.01015,-0.0913 0.116663,-0.42101 z"
       id="path7"
       transform="rotate(180,228.29333,118.31486)"
       inkscape:label="Smile" /><path
       style="display:inline;fill:#ffffff;fill-opacity:1;stroke:#000000;stroke-width:0.264583"
       d="m 78.233257,145.33438 c -0.452494,-0.28831 -1.35748,-0.86494 -1.906075,-1.17328 -0.548594,-0.30833 -0.740813,-0.34838 -0.953044,-0.3604 -0.212232,-0.012 -0.44448,0.004 -0.680744,0.036 -0.236265,0.032 -0.476512,0.0801 -0.77684,0.12813 -0.300329,0.048 -0.660721,0.0961 -1.065168,0.0881 -0.404447,-0.008 -0.852923,-0.0721 -1.261372,-0.1842 -0.408449,-0.11213 -0.776843,-0.2723 -1.125225,-0.47252 -0.348382,-0.20022 -0.676734,-0.44048 -0.957042,-0.7288 -0.280307,-0.28831 -0.512556,-0.62467 -0.684745,-0.95704 -0.172189,-0.33236 -0.284312,-0.66072 -0.360394,-1.00109 -0.07608,-0.34037 -0.116126,-0.69275 -0.136148,-1.00109 -0.02002,-0.30834 -0.02002,-0.57262 0.01201,-0.8249 0.03204,-0.25228 0.0961,-0.49253 0.07208,-0.72078 -0.02403,-0.22826 -0.136147,-0.44449 -0.776857,-1.14126 -0.640711,-0.69677 -1.809961,-1.87403 -2.446644,-2.48669 -0.636684,-0.61266 -0.740815,-0.66073 -0.832918,-0.60867 -0.0921,0.0521 -0.172186,0.20422 -0.152163,1.32146 0.02002,1.11724 0.14015,3.19947 0.204219,4.32069 0.06407,1.12122 0.07207,1.2814 0.140151,1.44958 0.06807,0.16819 0.196207,0.34437 1.477628,1.24137 1.281422,0.89699 3.716026,2.51472 5.033468,3.35965 1.317442,0.84492 1.517649,0.91699 1.737891,0.95303 0.220243,0.036 0.460501,0.036 1.38953,-0.04 0.929028,-0.0761 2.546759,-0.22825 3.427725,-0.34038 0.880967,-0.11212 1.025114,-0.18419 1.081174,-0.27229 0.05606,-0.0881 0.02403,-0.19221 0.008,-0.24427 -0.01602,-0.0521 -0.01601,-0.052 -0.468508,-0.34032 z"
       id="path8"
       transform="rotate(180,226.52383,99.585765)"
       inkscape:label="Right eye" /><path
       style="display:inline;fill:#ffffff;fill-opacity:1;stroke:#000000;stroke-width:0.264583"
       d="m 89.781841,144.89791 c 0.140152,-0.14816 0.420462,-0.44449 0.744819,-0.71278 0.324356,-0.2683 0.692747,-0.50855 1.073166,-0.72079 0.380419,-0.21223 0.77284,-0.39643 1.06917,-0.51656 0.29633,-0.12013 0.496533,-0.17619 0.736801,-0.16818 0.240268,0.008 0.520565,0.0801 0.840918,0.14816 0.320354,0.0681 0.680736,0.13214 1.053147,0.13214 0.372412,0 0.75682,-0.0641 1.121221,-0.17219 0.3644,-0.10812 0.708768,-0.26028 1.057152,-0.45649 0.348383,-0.19622 0.70076,-0.43648 0.985071,-0.72479 0.28431,-0.28832 0.500541,-0.62468 0.692753,-0.99709 0.192212,-0.37241 0.360394,-0.78085 0.472516,-1.18529 0.112122,-0.40445 0.168182,-0.80488 0.184198,-1.17328 0.01602,-0.36841 -0.008,-0.70477 -0.08409,-1.02512 -0.07609,-0.32035 -0.204219,-0.62467 -0.284307,-0.85293 -0.08009,-0.22825 -0.11212,-0.38041 0.340379,-1.20933 0.452495,-0.82891 1.389505,-2.33453 1.930095,-3.1354 0.54059,-0.80087 0.68474,-0.89698 0.79686,-0.92501 0.11212,-0.028 0.19222,0.012 0.27631,0.27231 0.0841,0.26028 0.17218,0.7408 0.35238,1.91009 0.1802,1.16929 0.45249,3.02728 0.58062,4.02837 0.12814,1.0011 0.1121,1.14524 0.0761,1.28941 -0.036,0.14416 -0.0921,0.28831 -0.9891,1.2694 -0.897,0.98108 -2.63486,2.79903 -3.547858,3.74406 -0.913002,0.94504 -1.001086,1.01711 -1.181284,1.06517 -0.180198,0.048 -0.452486,0.0721 -1.79798,0.1682 -1.345494,0.0961 -3.764079,0.26429 -5.029459,0.34838 -1.265381,0.0841 -1.377501,0.0841 -1.453585,0.028 -0.07608,-0.0561 -0.116127,-0.16819 -0.136149,-0.22425 -0.02002,-0.0561 -0.01997,-0.0561 0.12018,-0.20424 z"
       id="path10"
       transform="rotate(180,225.84926,98.170405)"
       inkscape:label="Left eye" /></g></svg>
